<svg width="48" height="47" viewBox="0 0 48 47" fill="none" xmlns="http://www.w3.org/2000/svg">
<path d="M23.7532 40.8752C23.4406 40.877 23.1308 40.8171 22.8414 40.6989C22.552 40.5807 22.2888 40.4065 22.0669 40.1864L3.61318 21.7089C1.29841 19.37 0 16.2121 0 12.9214C0 9.63069 1.29841 6.47287 3.61318 4.13391C5.94605 1.80762 9.10615 0.501282 12.4007 0.501282C15.6952 0.501282 18.8553 1.80762 21.1882 4.13391L23.7532 6.69891L26.3182 4.13391C28.651 1.80762 31.8112 0.501282 35.1057 0.501282C38.4002 0.501282 41.5603 1.80762 43.8932 4.13391C46.2079 6.47287 47.5064 9.63069 47.5064 12.9214C47.5064 16.2121 46.2079 19.37 43.8932 21.7089L25.4394 40.1864C25.2175 40.4065 24.9543 40.5807 24.665 40.6989C24.3756 40.8171 24.0657 40.877 23.7532 40.8752Z" fill="#4D4526"/>
<path d="M16.8734 15.8568C16.8595 15.7733 16.8418 15.6905 16.8206 15.6085C16.4218 14.1021 14.9015 13.1683 13.4238 13.5223C11.946 13.8764 11.072 15.3846 11.4708 16.8907C11.4931 16.9734 11.5188 17.0543 11.548 17.1333C11.0937 17.5754 10.8813 18.2463 11.0605 18.9228C11.3261 19.9271 12.3401 20.5496 13.3248 20.3137C13.9884 20.1547 14.7864 18.9963 14.8676 18.9772C14.9488 18.9581 16.2283 19.6177 16.8915 19.4587C17.8767 19.2225 18.4595 18.2174 18.1935 17.2132C18.0146 16.5367 17.4936 16.0413 16.8734 15.8568Z" stroke="#E1E0D2" stroke-width="0.5" stroke-linecap="round" stroke-linejoin="round"/>
<path d="M11.4212 12.6331C11.9669 12.4323 12.1696 11.6801 11.8742 10.953C11.5787 10.2259 10.8968 9.79925 10.3512 10.0001C9.8056 10.2009 9.60281 10.9531 9.89829 11.6802C10.1938 12.4072 10.8756 12.8339 11.4212 12.6331Z" stroke="#E1E0D2" stroke-width="0.5" stroke-linecap="round" stroke-linejoin="round"/>
<path d="M9.79041 15.7161C10.2751 15.4045 10.2965 14.6283 9.83798 13.9825C9.37952 13.3367 8.61489 13.0659 8.13015 13.3775C7.6454 13.6892 7.6241 14.4653 8.08257 15.1111C8.54104 15.7569 9.30566 16.0278 9.79041 15.7161Z" stroke="#E1E0D2" stroke-width="0.5" stroke-linecap="round" stroke-linejoin="round"/>
<path d="M18.6883 12.1015C18.7496 11.3243 18.3263 10.6606 17.743 10.6189C17.1596 10.5773 16.637 11.1735 16.5758 11.9507C16.5145 12.7279 16.9378 13.3917 17.5211 13.4333C18.1045 13.475 18.6271 12.8787 18.6883 12.1015Z" stroke="#E1E0D2" stroke-width="0.5" stroke-linecap="round" stroke-linejoin="round"/>
<path d="M20.1028 20.916C20.2249 20.1454 20.7916 19.5874 21.3705 19.6699C21.9494 19.7524 22.3198 20.4442 22.198 21.2149C22.0762 21.9855 21.5104 22.5368 20.9307 22.4614C20.3475 22.3853 19.9802 21.6889 20.1032 20.9164M14.0949 9.00502C14.6355 8.92927 15.2775 9.72803 15.359 10.2545C15.4784 11.0256 15.106 11.8101 14.5272 11.8915C13.9483 11.9728 13.3824 11.4133 13.263 10.6419C13.1436 9.87054 13.5164 9.0864 14.0949 9.00502ZM23.8921 27.8064C23.9228 27.7279 23.9505 27.6476 23.9752 27.5656C24.4122 26.069 23.5764 24.5412 22.1086 24.1531C20.6407 23.7649 19.0967 24.6631 18.6597 26.1601C18.6357 26.2426 18.6171 26.3251 18.6006 26.4072C17.9756 26.5771 17.4424 27.0605 17.2462 27.7325C16.955 28.73 17.5122 29.7489 18.4907 30.0077C19.1499 30.1817 20.4452 29.5513 20.5264 29.5727C20.6076 29.5941 21.3752 30.7705 22.0345 30.9445C23.0129 31.2032 24.0422 30.6043 24.3338 29.6064C24.5301 28.9344 24.335 28.2587 23.8921 27.8064Z" stroke="#E1E0D2" stroke-width="0.5" stroke-linecap="round" stroke-linejoin="round"/>
<path d="M17.8108 24.4426C18.3941 24.4001 18.8163 23.7355 18.7538 22.9582C18.6913 22.1809 18.1678 21.5853 17.5845 21.6277C17.0012 21.6702 16.579 22.3348 16.6415 23.1121C16.704 23.8894 17.2275 24.485 17.8108 24.4426Z" stroke="#E1E0D2" stroke-width="0.5" stroke-linecap="round" stroke-linejoin="round"/>
<path d="M27.4241 25.3982C27.8816 24.7516 27.8592 23.9753 27.374 23.6643C26.8887 23.3534 26.1245 23.6255 25.6669 24.2721C25.2093 24.9187 25.2317 25.695 25.717 26.0059C26.2022 26.3169 26.9665 26.0448 27.4241 25.3982Z" stroke="#E1E0D2" stroke-width="0.5" stroke-linecap="round" stroke-linejoin="round"/>
<path d="M25.5396 22.3316C25.8369 21.6054 25.636 20.8529 25.0909 20.6508C24.5458 20.4487 23.8629 20.8736 23.5656 21.5998C23.2683 22.326 23.4692 23.0785 24.0143 23.2806C24.5594 23.4827 25.2423 23.0578 25.5396 22.3316Z" stroke="#E1E0D2" stroke-width="0.5" stroke-linecap="round" stroke-linejoin="round"/>
<path d="M40.3124 18.1463C40.3124 18.1463 37.6028 18.3175 36.3521 18.6506C34.7162 19.0864 33.8591 20.1008 32.1763 20.3491C30.0409 20.3495 29.743 20.4345 27.9154 17.1292C27.2456 15.9184 26.247 11.9395 26.247 11.9395C26.1049 11.3933 25.5451 10.5542 26.079 10.2582C26.6128 9.96231 27.3495 10.3718 27.6586 10.9265L28.6795 13.2214C29.0075 13.7345 29.6275 14.1187 30.3322 13.7503C31.3563 13.171 32.0902 12.6311 32.6365 11.6454L34.677 7.86274C34.8618 7.60194 35.2754 7.33499 35.6616 7.57938C36.0477 7.82375 35.9835 8.38022 35.8107 8.6539L33.9847 12.628C33.8936 12.9947 34.0888 13.4492 34.5477 13.1468L38.5799 9.6039C38.8713 9.36096 39.3576 9.30762 39.5666 9.68479C39.841 10.1798 39.8208 10.589 39.5163 10.7452L35.6005 14.3539C35.4279 14.562 35.6263 14.8505 35.875 14.82L40.4495 12.6939C40.5988 12.6322 40.945 12.6796 41.0888 13.0594C41.2326 13.439 40.9685 13.8504 40.8022 13.8939L36.3974 16.2026C36.0516 16.4875 36.1633 16.8217 36.5091 16.9383L40.1154 16.9516C40.3982 16.9172 40.6493 17.2568 40.6752 17.5194C40.6561 17.7878 40.5549 18.0119 40.3124 18.1463Z" fill="#E1E0D2"/>
<path d="M3.11436 42.5H3.61436V45.565H5.50936V46H3.11436V42.5ZM6.01311 43.35H6.49311V46H6.01311V43.35ZM6.25311 42.84C6.15977 42.84 6.08144 42.81 6.01811 42.75C5.95811 42.69 5.92811 42.6167 5.92811 42.53C5.92811 42.4433 5.95811 42.37 6.01811 42.31C6.08144 42.2467 6.15977 42.215 6.25311 42.215C6.34644 42.215 6.42311 42.245 6.48311 42.305C6.54644 42.3617 6.57811 42.4333 6.57811 42.52C6.57811 42.61 6.54644 42.6867 6.48311 42.75C6.42311 42.81 6.34644 42.84 6.25311 42.84ZM8.80459 45.845C8.73459 45.905 8.64792 45.9517 8.54459 45.985C8.44126 46.015 8.33459 46.03 8.22459 46.03C7.95792 46.03 7.75126 45.9583 7.60459 45.815C7.45792 45.6717 7.38459 45.4667 7.38459 45.2V42.77H7.86459V43.35H8.62459V43.745H7.86459V45.18C7.86459 45.3233 7.89959 45.4333 7.96959 45.51C8.04292 45.5867 8.14626 45.625 8.27959 45.625C8.42626 45.625 8.55126 45.5833 8.65459 45.5L8.80459 45.845ZM10.7772 45.845C10.7072 45.905 10.6206 45.9517 10.5172 45.985C10.4139 46.015 10.3072 46.03 10.1972 46.03C9.93058 46.03 9.72391 45.9583 9.57725 45.815C9.43058 45.6717 9.35725 45.4667 9.35725 45.2V42.77H9.83725V43.35H10.5972V43.745H9.83725V45.18C9.83725 45.3233 9.87225 45.4333 9.94225 45.51C10.0156 45.5867 10.1189 45.625 10.2522 45.625C10.3989 45.625 10.5239 45.5833 10.6272 45.5L10.7772 45.845ZM12.1599 46.03C11.9032 46.03 11.7049 45.96 11.5649 45.82C11.4249 45.6767 11.3549 45.4767 11.3549 45.22V42.29H11.8349V45.18C11.8349 45.3233 11.8682 45.4333 11.9349 45.51C12.0049 45.5867 12.1082 45.625 12.2449 45.625C12.3282 45.625 12.4066 45.6083 12.4799 45.575L12.5049 45.97C12.3949 46.01 12.2799 46.03 12.1599 46.03ZM14.1075 45.61C14.4242 45.61 14.6792 45.5033 14.8725 45.29L15.1325 45.6C15.0159 45.74 14.8675 45.8467 14.6875 45.92C14.5109 45.9933 14.3125 46.03 14.0925 46.03C13.8125 46.03 13.5642 45.9733 13.3475 45.86C13.1309 45.7433 12.9625 45.5817 12.8425 45.375C12.7259 45.1683 12.6675 44.935 12.6675 44.675C12.6675 44.4183 12.7242 44.1867 12.8375 43.98C12.9542 43.7733 13.1125 43.6133 13.3125 43.5C13.5159 43.3833 13.7442 43.325 13.9975 43.325C14.2375 43.325 14.4559 43.38 14.6525 43.49C14.8492 43.5967 15.0059 43.7483 15.1225 43.945C15.2392 44.1417 15.2992 44.3683 15.3025 44.625L13.1975 45.035C13.2642 45.2183 13.3759 45.36 13.5325 45.46C13.6925 45.56 13.8842 45.61 14.1075 45.61ZM13.9975 43.73C13.8309 43.73 13.6809 43.7683 13.5475 43.845C13.4175 43.9217 13.3159 44.03 13.2425 44.17C13.1692 44.3067 13.1325 44.4667 13.1325 44.65V44.7L14.8275 44.38C14.7842 44.1867 14.6875 44.03 14.5375 43.91C14.3875 43.79 14.2075 43.73 13.9975 43.73ZM17.3868 42.5H17.8868V45.565H19.7818V46H17.3868V42.5ZM21.3864 46.03C21.1231 46.03 20.8864 45.9717 20.6764 45.855C20.4664 45.7383 20.3014 45.5783 20.1814 45.375C20.0647 45.1683 20.0064 44.935 20.0064 44.675C20.0064 44.415 20.0647 44.1833 20.1814 43.98C20.3014 43.7733 20.4664 43.6133 20.6764 43.5C20.8864 43.3833 21.1231 43.325 21.3864 43.325C21.6497 43.325 21.8847 43.3833 22.0914 43.5C22.3014 43.6133 22.4647 43.7733 22.5814 43.98C22.7014 44.1833 22.7614 44.415 22.7614 44.675C22.7614 44.935 22.7014 45.1683 22.5814 45.375C22.4647 45.5783 22.3014 45.7383 22.0914 45.855C21.8847 45.9717 21.6497 46.03 21.3864 46.03ZM21.3864 45.61C21.5564 45.61 21.7081 45.5717 21.8414 45.495C21.9781 45.415 22.0847 45.305 22.1614 45.165C22.2381 45.0217 22.2764 44.8583 22.2764 44.675C22.2764 44.4917 22.2381 44.33 22.1614 44.19C22.0847 44.0467 21.9781 43.9367 21.8414 43.86C21.7081 43.7833 21.5564 43.745 21.3864 43.745C21.2164 43.745 21.0631 43.7833 20.9264 43.86C20.7931 43.9367 20.6864 44.0467 20.6064 44.19C20.5297 44.33 20.4914 44.4917 20.4914 44.675C20.4914 44.8583 20.5297 45.0217 20.6064 45.165C20.6864 45.305 20.7931 45.415 20.9264 45.495C21.0631 45.5717 21.2164 45.61 21.3864 45.61ZM25.697 43.35L24.537 46H24.047L22.887 43.35H23.387L24.297 45.475L25.227 43.35H25.697ZM27.2667 45.61C27.5834 45.61 27.8384 45.5033 28.0317 45.29L28.2917 45.6C28.175 45.74 28.0267 45.8467 27.8467 45.92C27.67 45.9933 27.4717 46.03 27.2517 46.03C26.9717 46.03 26.7234 45.9733 26.5067 45.86C26.29 45.7433 26.1217 45.5817 26.0017 45.375C25.885 45.1683 25.8267 44.935 25.8267 44.675C25.8267 44.4183 25.8834 44.1867 25.9967 43.98C26.1134 43.7733 26.2717 43.6133 26.4717 43.5C26.675 43.3833 26.9034 43.325 27.1567 43.325C27.3967 43.325 27.615 43.38 27.8117 43.49C28.0084 43.5967 28.165 43.7483 28.2817 43.945C28.3984 44.1417 28.4584 44.3683 28.4617 44.625L26.3567 45.035C26.4234 45.2183 26.535 45.36 26.6917 45.46C26.8517 45.56 27.0434 45.61 27.2667 45.61ZM27.1567 43.73C26.99 43.73 26.84 43.7683 26.7067 43.845C26.5767 43.9217 26.475 44.03 26.4017 44.17C26.3284 44.3067 26.2917 44.4667 26.2917 44.65V44.7L27.9867 44.38C27.9434 44.1867 27.8467 44.03 27.6967 43.91C27.5467 43.79 27.3667 43.73 27.1567 43.73ZM31.911 42.5C32.3643 42.5 32.721 42.6083 32.981 42.825C33.241 43.0417 33.371 43.34 33.371 43.72C33.371 44.1 33.241 44.3983 32.981 44.615C32.721 44.8317 32.3643 44.94 31.911 44.94H31.046V46H30.546V42.5H31.911ZM31.896 44.505C32.2127 44.505 32.4543 44.4383 32.621 44.305C32.7877 44.1683 32.871 43.9733 32.871 43.72C32.871 43.4667 32.7877 43.2733 32.621 43.14C32.4543 43.0033 32.2127 42.935 31.896 42.935H31.046V44.505H31.896ZM36.5258 43.35V46H36.0658V45.58C35.9591 45.7267 35.8241 45.8383 35.6608 45.915C35.4975 45.9917 35.3175 46.03 35.1208 46.03C34.8641 46.03 34.6341 45.9733 34.4308 45.86C34.2275 45.7467 34.0675 45.5883 33.9508 45.385C33.8375 45.1783 33.7808 44.9417 33.7808 44.675C33.7808 44.4083 33.8375 44.1733 33.9508 43.97C34.0675 43.7667 34.2275 43.6083 34.4308 43.495C34.6341 43.3817 34.8641 43.325 35.1208 43.325C35.3108 43.325 35.4858 43.3617 35.6458 43.435C35.8058 43.505 35.9391 43.61 36.0458 43.75V43.35H36.5258ZM35.1608 45.61C35.3275 45.61 35.4791 45.5717 35.6158 45.495C35.7525 45.415 35.8591 45.305 35.9358 45.165C36.0125 45.0217 36.0508 44.8583 36.0508 44.675C36.0508 44.4917 36.0125 44.33 35.9358 44.19C35.8591 44.0467 35.7525 43.9367 35.6158 43.86C35.4791 43.7833 35.3275 43.745 35.1608 43.745C34.9908 43.745 34.8375 43.7833 34.7008 43.86C34.5675 43.9367 34.4608 44.0467 34.3808 44.19C34.3041 44.33 34.2658 44.4917 34.2658 44.675C34.2658 44.8583 34.3041 45.0217 34.3808 45.165C34.4608 45.305 34.5675 45.415 34.7008 45.495C34.8375 45.5717 34.9908 45.61 35.1608 45.61ZM41.474 43.35V44.815C41.474 45.205 41.3773 45.505 41.184 45.715C40.9907 45.925 40.7107 46.03 40.344 46.03C39.9107 46.03 39.6107 45.8717 39.444 45.555C39.3573 45.715 39.239 45.835 39.089 45.915C38.9423 45.9917 38.759 46.03 38.539 46.03C38.169 46.03 37.8873 45.925 37.694 45.715C37.504 45.505 37.409 45.205 37.409 44.815V43.35H37.889V44.77C37.889 45.0533 37.9407 45.2633 38.044 45.4C38.1473 45.5333 38.3123 45.6 38.539 45.6C38.7657 45.6 38.9323 45.5317 39.039 45.395C39.149 45.2583 39.204 45.05 39.204 44.77V43.35H39.684V44.77C39.684 45.05 39.7373 45.2583 39.844 45.395C39.954 45.5317 40.1223 45.6 40.349 45.6C40.5723 45.6 40.7357 45.5333 40.839 45.4C40.9423 45.2633 40.994 45.0533 40.994 44.77V43.35H41.474ZM43.1208 46.03C42.9041 46.03 42.6958 46.0017 42.4958 45.945C42.2958 45.885 42.1391 45.81 42.0258 45.72L42.2258 45.34C42.3424 45.4233 42.4841 45.49 42.6508 45.54C42.8174 45.59 42.9858 45.615 43.1558 45.615C43.5758 45.615 43.7858 45.495 43.7858 45.255C43.7858 45.175 43.7574 45.1117 43.7008 45.065C43.6441 45.0183 43.5724 44.985 43.4858 44.965C43.4024 44.9417 43.2824 44.9167 43.1258 44.89C42.9124 44.8567 42.7374 44.8183 42.6008 44.775C42.4674 44.7317 42.3524 44.6583 42.2558 44.555C42.1591 44.4517 42.1108 44.3067 42.1108 44.12C42.1108 43.88 42.2108 43.6883 42.4108 43.545C42.6108 43.3983 42.8791 43.325 43.2158 43.325C43.3924 43.325 43.5691 43.3467 43.7458 43.39C43.9224 43.4333 44.0674 43.4917 44.1808 43.565L43.9758 43.945C43.7591 43.805 43.5041 43.735 43.2108 43.735C43.0074 43.735 42.8524 43.7683 42.7458 43.835C42.6391 43.9017 42.5858 43.99 42.5858 44.1C42.5858 44.1867 42.6158 44.255 42.6758 44.305C42.7358 44.355 42.8091 44.3917 42.8958 44.415C42.9858 44.4383 43.1108 44.465 43.2708 44.495C43.4841 44.5317 43.6558 44.5717 43.7858 44.615C43.9191 44.655 44.0324 44.725 44.1258 44.825C44.2191 44.925 44.2658 45.065 44.2658 45.245C44.2658 45.485 44.1624 45.6767 43.9558 45.82C43.7524 45.96 43.4741 46.03 43.1208 46.03Z" fill="#E1E0D2"/>
</svg>
