<svg width="49" height="41" viewBox="0 0 49 41" fill="none" xmlns="http://www.w3.org/2000/svg">
<path d="M24.5007 40.8752C24.1882 40.877 23.8783 40.8171 23.589 40.6989C23.2996 40.5807 23.0364 40.4065 22.8145 40.1864L4.36073 21.7089C2.04597 19.37 0.747559 16.2121 0.747559 12.9214C0.747559 9.63069 2.04597 6.47287 4.36073 4.13391C6.69361 1.80762 9.85371 0.501282 13.1482 0.501282C16.4428 0.501282 19.6029 1.80762 21.9357 4.13391L24.5007 6.69891L27.0657 4.13391C29.3986 1.80762 32.5587 0.501282 35.8532 0.501282C39.1478 0.501282 42.3079 1.80762 44.6407 4.13391C46.9555 6.47287 48.2539 9.63069 48.2539 12.9214C48.2539 16.2121 46.9555 19.37 44.6407 21.7089L26.187 40.1864C25.9651 40.4065 25.7019 40.5807 25.4125 40.6989C25.1231 40.8171 24.8133 40.877 24.5007 40.8752Z" fill="#4D4526"/>
<path d="M17.6209 15.8568C17.607 15.7733 17.5894 15.6905 17.5681 15.6085C17.1693 14.1021 15.649 13.1683 14.1713 13.5223C12.6936 13.8764 11.8195 15.3846 12.2183 16.8907C12.2407 16.9734 12.2664 17.0543 12.2956 17.1333C11.8412 17.5754 11.6288 18.2463 11.8081 18.9228C12.0737 19.9271 13.0876 20.5496 14.0724 20.3137C14.736 20.1547 15.534 18.9963 15.6152 18.9772C15.6963 18.9581 16.9759 19.6177 17.6391 19.4587C18.6242 19.2225 19.207 18.2174 18.9411 17.2132C18.7622 16.5367 18.2412 16.0413 17.6209 15.8568Z" stroke="#E1E0D2" stroke-width="0.5" stroke-linecap="round" stroke-linejoin="round"/>
<path d="M12.1688 12.6331C12.7144 12.4323 12.9172 11.6801 12.6217 10.953C12.3262 10.2259 11.6444 9.79925 11.0988 10.0001C10.5532 10.2009 10.3504 10.9531 10.6458 11.6802C10.9413 12.4072 11.6232 12.8339 12.1688 12.6331Z" stroke="#E1E0D2" stroke-width="0.5" stroke-linecap="round" stroke-linejoin="round"/>
<path d="M10.538 15.7161C11.0227 15.4045 11.044 14.6283 10.5855 13.9825C10.1271 13.3367 9.36245 13.0659 8.87771 13.3775C8.39296 13.6892 8.37166 14.4653 8.83013 15.1111C9.2886 15.7569 10.0532 16.0278 10.538 15.7161Z" stroke="#E1E0D2" stroke-width="0.5" stroke-linecap="round" stroke-linejoin="round"/>
<path d="M19.4359 12.1015C19.4971 11.3243 19.0739 10.6606 18.4905 10.6189C17.9072 10.5773 17.3846 11.1735 17.3233 11.9507C17.2621 12.7279 17.6853 13.3917 18.2687 13.4333C18.852 13.475 19.3746 12.8787 19.4359 12.1015Z" stroke="#E1E0D2" stroke-width="0.5" stroke-linecap="round" stroke-linejoin="round"/>
<path d="M20.8503 20.916C20.9725 20.1454 21.5392 19.5874 22.118 19.6699C22.6969 19.7524 23.0673 20.4442 22.9456 21.2149C22.8238 21.9855 22.2579 22.5368 21.6783 22.4614C21.095 22.3853 20.7278 21.6889 20.8507 20.9164M14.8424 9.00502C15.3831 8.92927 16.025 9.72803 16.1066 10.2545C16.226 11.0256 15.8536 11.8101 15.2747 11.8915C14.6958 11.9728 14.13 11.4133 14.0106 10.6419C13.8912 9.87054 14.2639 9.0864 14.8424 9.00502ZM24.6396 27.8064C24.6704 27.7279 24.6981 27.6476 24.7228 27.5656C25.1598 26.069 24.324 24.5412 22.8561 24.1531C21.3882 23.7649 19.8443 24.6631 19.4073 26.1601C19.3832 26.2426 19.3647 26.3251 19.3482 26.4072C18.7232 26.5771 18.19 27.0605 17.9938 27.7325C17.7025 28.73 18.2598 29.7489 19.2382 30.0077C19.8975 30.1817 21.1928 29.5513 21.2739 29.5727C21.3551 29.5941 22.1228 30.7705 22.782 30.9445C23.7605 31.2032 24.7898 30.6043 25.0814 29.6064C25.2776 28.9344 25.0826 28.2587 24.6396 27.8064Z" stroke="#E1E0D2" stroke-width="0.5" stroke-linecap="round" stroke-linejoin="round"/>
<path d="M18.5584 24.4426C19.1417 24.4001 19.5639 23.7355 19.5014 22.9582C19.4389 22.1809 18.9153 21.5853 18.332 21.6277C17.7487 21.6702 17.3265 22.3348 17.3891 23.1121C17.4516 23.8894 17.9751 24.485 18.5584 24.4426Z" stroke="#E1E0D2" stroke-width="0.5" stroke-linecap="round" stroke-linejoin="round"/>
<path d="M28.1716 25.3982C28.6292 24.7516 28.6068 23.9753 28.1215 23.6643C27.6363 23.3534 26.872 23.6255 26.4144 24.2721C25.9569 24.9187 25.9793 25.695 26.4645 26.0059C26.9498 26.3169 27.7141 26.0448 28.1716 25.3982Z" stroke="#E1E0D2" stroke-width="0.5" stroke-linecap="round" stroke-linejoin="round"/>
<path d="M26.2872 22.3316C26.5844 21.6054 26.3835 20.8529 25.8384 20.6508C25.2933 20.4487 24.6104 20.8736 24.3132 21.5998C24.0159 22.326 24.2168 23.0785 24.7619 23.2806C25.307 23.4827 25.9899 23.0578 26.2872 22.3316Z" stroke="#E1E0D2" stroke-width="0.5" stroke-linecap="round" stroke-linejoin="round"/>
<path d="M41.06 18.1463C41.06 18.1463 38.3504 18.3175 37.0996 18.6506C35.4637 19.0864 34.6067 20.1008 32.9239 20.3491C30.7885 20.3495 30.4906 20.4345 28.6629 17.1292C27.9932 15.9184 26.9945 11.9395 26.9945 11.9395C26.8525 11.3933 26.2926 10.5542 26.8265 10.2582C27.3604 9.96231 28.097 10.3718 28.4062 10.9265L29.427 13.2214C29.755 13.7345 30.3751 14.1187 31.0797 13.7503C32.1039 13.171 32.8378 12.6311 33.3841 11.6454L35.4245 7.86274C35.6093 7.60194 36.0229 7.33499 36.4091 7.57938C36.7953 7.82375 36.7311 8.38022 36.5583 8.6539L34.7323 12.628C34.6411 12.9947 34.8364 13.4492 35.2953 13.1468L39.3275 9.6039C39.6188 9.36096 40.1051 9.30762 40.3142 9.68479C40.5886 10.1798 40.5684 10.589 40.2639 10.7452L36.3481 14.3539C36.1755 14.562 36.3739 14.8505 36.6225 14.82L41.1971 12.6939C41.3464 12.6322 41.6925 12.6796 41.8364 13.0594C41.9802 13.439 41.716 13.8504 41.5497 13.8939L37.145 16.2026C36.7991 16.4875 36.9108 16.8217 37.2567 16.9383L40.863 16.9516C41.1457 16.9172 41.3969 17.2568 41.4228 17.5194C41.4036 17.7878 41.3024 18.0119 41.06 18.1463Z" fill="#E1E0D2"/>
</svg>
